<?xml version="1.0" encoding="UTF-8"?>
<svg id="Layer_2" xmlns="http://www.w3.org/2000/svg" width="75.340003967" height="40.380001068" viewBox="0 0 75.340003967 40.380001068">
  <g id="Layer_2-2" data-name="Layer_2">
    <path id="path110" d="M27.780000687,0l.379999161.5-.379999161,3.909999847-7.059999466-.380001068h-4.090000153l-.190000534,23.750001907.190000534,12.600000381h-5.100000381l.369999886-12.159999847-.31000042-24.189998627h-4.100000381l-7.179999828.380001068-.309999943-.509998322L.370000005.000003815l27.410000682-.000003815ZM71.379997253,0l3.960006714,40.380001068h-4.530006409l-.949996948-12.289999962-2.13999939-20.090001106h-.440002441l-11.209999084,27.720001221h-4.159999847l-10.649997711-27.720001221h-.5l-2.140003204,19.720001221-1.079998016,12.659999847h-4.279998779L37.480003357,0h5.729999542l2.079998016,6.170001984,8.760002136,23h.380001068l9.200000763-23.379997253L65.700004578.000003815l5.679992676-.000003815Z" fill="#5699d2"/>
  </g>
</svg>